<?xml version="1.0" encoding="UTF-8" standalone="no"?><!-- Generator: Gravit.io --><svg xmlns="http://www.w3.org/2000/svg" xmlns:xlink="http://www.w3.org/1999/xlink" style="isolation:isolate" viewBox="0 0 882 882" width="882pt" height="882pt"><defs><clipPath id="_clipPath_lSas6SrqKvI4cfgAhITUvTd3hduHM4O1"><rect width="882" height="882"/></clipPath></defs><g clip-path="url(#_clipPath_lSas6SrqKvI4cfgAhITUvTd3hduHM4O1)"><clipPath id="_clipPath_Nu0YYSYvp85rr6a4Y7rFlmZY26gYs4pT"><path d=" M 0 0 L 882 0 L 882 882 L 0 882 L 0 0 Z " id="Path" fill="rgb(255,255,255)"/></clipPath><g clip-path="url(#_clipPath_Nu0YYSYvp85rr6a4Y7rFlmZY26gYs4pT)"><path d=" M 761.523 432.331 C 752.294 416.463 739.238 432.315 732.296 439.463 C 733.836 433.824 734.664 416.559 729.214 414.351 C 719.653 410.268 717.477 421.403 712.394 431.87 C 712.775 423.769 711.393 412.254 704.928 411.284 C 686.344 408.536 695.748 437.7 694.509 450.232 C 687.091 446.516 680.246 435.873 675.321 437.43 C 648.414 453.075 692.316 462.256 685.995 481.206 C 701.942 485.605 717.874 490.005 733.822 494.373 C 737.395 463.718 764.382 438.923 761.523 432.331 Z " fill-rule="evenodd" id="Path" fill="rgb(89,158,18)"/><path d=" M 487.392 669.476 C 490.855 656.801 494.35 644.141 497.828 631.497 C 508.28 640.186 516.348 650.225 526.562 659.104 C 514.379 664.076 501.323 667.554 487.392 669.476 Z  M 465.854 665.06 C 453.21 661.582 440.567 658.12 427.875 654.624 C 431.481 641.473 435.102 628.384 438.708 615.217 C 451.415 618.727 464.043 622.19 476.687 625.668 C 473.097 638.82 469.475 651.94 465.854 665.06 Z  M 449.509 488.035 C 467.68 484.461 487.567 484 505.977 480.824 C 506.866 500.805 465.234 509.161 449.509 488.035 Z  M 444.284 468.418 C 431.211 464.717 430.686 444.084 445.65 441.542 C 470.778 437.254 463.742 473.914 444.284 468.418 Z  M 516.809 441.448 C 525.021 462.017 494.556 468.784 488.25 451.756 C 488.441 432.759 507.295 430.837 516.809 441.448 Z  M 407.163 647.414 C 397.426 638.693 389.436 628.989 379.843 620.205 C 390.342 615.01 403.446 614.407 414.406 610.054 C 418.98 618.553 408.497 635.548 407.163 647.414 Z  M 723.878 502.966 C 712.188 499.725 700.466 496.5 688.712 493.277 C 677.751 523.138 676.052 552.999 665.871 576.286 C 648.541 616.107 604.392 615.55 559.965 609.212 C 562.015 601.746 564.095 594.219 566.176 586.69 C 538.935 579.208 511.742 571.727 484.517 564.262 C 487.884 552.046 491.237 539.864 494.588 527.633 C 510.344 526.109 525.371 523.376 541.445 522.391 C 537.776 469.896 529.341 420.037 524.925 367.969 C 513.077 368.08 501.592 368.763 491.855 372.528 C 494.492 384.488 494.905 397.735 496.668 410.172 C 479.45 411.919 462.629 414.366 445.173 415.668 C 445.491 402.072 441.472 390.906 442.203 377.007 C 430.783 377.15 421.252 380.534 409.561 380.152 C 414.406 431.996 421.681 482.475 426.08 534.527 C 442.568 534.988 456.339 530.652 472.557 530.667 C 469.984 540.071 467.411 549.426 464.821 558.83 C 437.167 551.221 409.498 543.613 381.781 536.004 C 379.604 543.93 377.413 551.935 375.22 559.91 C 275.947 535.94 220.051 585.038 203.007 701.737 C 214.286 704.85 225.547 707.931 236.809 711.044 C 246.99 682.088 249.642 653.195 258.855 630.83 C 276.455 588.135 319.246 586.197 365.928 593.663 C 356.779 627.002 347.614 660.28 338.449 693.587 C 365.42 702.006 397.124 707.708 421.077 717.827 C 414.756 730.407 439.852 736.03 441.17 721.861 C 468.379 729.311 495.588 736.824 522.797 744.304 C 532.868 711.235 540.253 673.448 552.055 643.347 C 619.618 655.705 679.945 644.396 702.594 580.368 C 710.647 557.59 714.92 530.858 723.878 502.966 Z " fill-rule="evenodd" id="Compound Path" fill="rgb(89,158,18)"/><path d=" M 240.97 723.402 C 224.53 718.875 208.123 714.333 191.715 709.853 C 195.59 735.013 152.339 771.292 172.733 778.804 C 182.533 782.379 187.108 765.701 194.399 760.491 C 184.392 787.223 202.182 801.837 214.19 768.56 C 214.254 776.882 215.667 792.274 223.403 792.735 C 240.573 793.799 229.772 766.622 232.441 754.36 C 239.906 757.616 240.827 764.589 250.214 766.781 C 255.377 764.223 258.347 764.144 259.968 758.903 C 264.224 744.924 234.251 740.35 240.97 723.402 Z " fill-rule="evenodd" id="Path" fill="rgb(89,158,18)"/><path d=" M 626.717 282.578 C 635.914 304.64 664.616 321.493 684.327 304.736 C 689.904 300.018 704.373 280.958 705.056 271.856 C 705.882 261.15 690.252 228.271 670.715 227.111 C 658.405 226.364 628.067 244.392 624.747 250.636 C 620.745 258.213 623 273.619 626.717 282.578 Z " fill-rule="evenodd" id="ball5" fill="rgb(89,158,18)"/><path d=" M 390.262 236.483 C 395.838 231.733 410.292 212.689 411.007 203.571 C 411.801 192.914 398.173 164.735 376.65 158.842 C 356.907 153.394 334.002 176.14 330.698 182.398 C 326.695 189.943 328.919 205.351 332.667 214.34 C 341.865 236.372 370.567 253.24 390.262 236.483 Z " fill-rule="evenodd" id="ball2" fill="rgb(89,158,18)"/><path d=" M 616.313 136.224 C 638.995 142.117 669.174 129.6 667.713 104.217 C 667.284 97.133 660.946 74.531 654.195 68.622 C 646.333 61.665 640.664 54.724 621.904 57.249 C 621.904 57.249 606.885 59.885 598.927 69.019 C 591.002 78.137 582.076 105.552 590.177 118.911 C 594.529 126.058 607.076 133.841 616.313 136.224 Z " fill-rule="evenodd" id="ball4" fill="rgb(89,158,18)"/><path d=" M 321.247 377.054 C 320.897 371.336 315.814 353.181 310.398 348.416 C 304.06 342.792 297.294 338.473 282.189 340.474 C 282.189 340.474 272.309 341.379 265.908 348.734 C 259.507 356.073 252.105 382.058 258.872 388.872 C 263.621 393.637 272.5 400.848 279.933 402.786 C 298.152 407.488 322.375 397.45 321.247 377.054 Z " fill-rule="evenodd" id="ball1" fill="rgb(89,158,18)"/><path d=" M 447.221 107.029 C 454.227 113.653 471.572 115.861 482.499 114.574 C 509.168 111.318 536.187 85.285 524.004 58.806 C 520.557 51.356 504.309 29.866 494.619 26.324 C 483.262 22.177 440.297 36.918 435.642 49.975 C 430.972 63.063 432.1 70.958 434.594 82.378 C 436.389 90.543 441.44 101.502 447.221 107.029 Z " fill-rule="evenodd" id="ball3" fill="rgb(89,158,18)"/></g><path d=" M 403.448 796.163 C 394.33 791.795 389.073 764.633 411.945 765.173 C 439.266 765.872 428.464 808.092 403.448 796.163 Z  M 432.532 744.446 C 432.241 741.128 435.176 733.637 433.738 731.341 C 431.062 727.068 423.76 727.928 420.821 727.446 C 418.868 727.126 416.82 740.158 414.631 739.952 C 411.848 739.69 408.836 739.471 405.496 739.172 C 397.459 728.18 399.667 725.639 387.977 731.341 C 374.618 737.821 384.943 739.108 384.323 750.02 C 382.417 750.115 380.972 751.02 380.352 753.45 C 375.714 755.23 370.981 749.131 365.247 747.812 C 364.024 756.088 359.688 758.819 358.433 767.127 C 361.942 769.477 368.201 770.288 370.314 773.385 C 369.567 775.847 369.44 777.88 370.171 779.404 C 368.026 785.377 360.942 782.629 356.606 784.773 C 355.986 792.255 359.958 797.084 360.434 804.009 C 366.803 805.502 369.361 800.244 376.047 802.23 C 382.036 809.441 376.937 812.666 372.395 820.893 C 377.747 824.578 382.258 828.772 389.168 831.552 C 391.423 827.216 392.742 821.132 397.888 821.847 C 410.595 821.735 402.161 833.664 408.848 837 C 414.217 835.92 420.523 836.65 425.859 835.618 C 425.971 826.135 423.477 819.385 433.738 818.098 C 438.741 820.401 439.17 825.262 444.857 827.216 C 449.209 822.37 453.562 817.511 457.929 812.649 C 451.543 808.807 445.524 803.707 451.956 795.876 C 455.578 794.606 460.518 795.638 465.379 796.544 C 468.253 788.554 466.522 783.218 468 776.085 C 463.711 774.926 455.451 777.515 453.529 773.592 C 448.573 764.363 459.422 763.013 462.789 756.469 C 452.37 740.712 453.036 741.888 437.82 748.082 C 436.339 746.91 432.823 747.764 432.532 744.446 Z " fill-rule="evenodd" id="gear" fill="rgb(89,158,18)"/></g></svg>