<?xml version="1.0" encoding="UTF-8" standalone="no"?><!-- Generator: Gravit.io --><svg xmlns="http://www.w3.org/2000/svg" xmlns:xlink="http://www.w3.org/1999/xlink" style="isolation:isolate" viewBox="0 0 882 882" width="882pt" height="882pt"><defs><clipPath id="_clipPath_Tnhqu8Ep1zufo1kOckJNaV58UeMSQEfu"><rect width="882" height="882"/></clipPath></defs><g clip-path="url(#_clipPath_Tnhqu8Ep1zufo1kOckJNaV58UeMSQEfu)"><g id="balls"><path d=" M 635.753 349.054 C 644.95 371.116 673.652 387.969 693.363 371.212 C 698.94 366.494 713.409 347.434 714.092 338.332 C 714.918 327.626 699.288 294.747 679.751 293.587 C 667.441 292.84 637.103 310.868 633.783 317.112 C 629.781 324.689 632.036 340.095 635.753 349.054 Z " fill-rule="evenodd" id="Path" fill="rgb(89,158,18)"/><path d=" M 313.388 176.667 C 318.964 171.917 333.418 152.873 334.133 143.755 C 334.927 133.098 321.299 104.919 299.776 99.026 C 280.033 93.578 257.128 116.324 253.824 122.582 C 249.821 130.127 252.045 145.535 255.793 154.524 C 264.991 176.556 293.693 193.424 313.388 176.667 Z " fill-rule="evenodd" id="Path" fill="rgb(89,158,18)"/><path d=" M 460.415 505.022 C 483.098 510.915 513.276 498.398 511.815 473.015 C 511.387 465.931 505.049 443.329 498.298 437.42 C 490.436 430.463 484.766 423.522 466.006 426.047 C 466.006 426.047 450.988 428.683 443.03 437.817 C 435.104 446.935 426.178 474.35 434.279 487.709 C 438.631 494.856 451.179 502.639 460.415 505.022 Z " fill-rule="evenodd" id="Path" fill="rgb(89,158,18)"/><path d=" M 623.87 182.022 C 646.553 187.915 676.731 175.398 675.27 150.015 C 674.842 142.931 668.504 120.329 661.753 114.42 C 653.891 107.463 648.221 100.522 629.461 103.047 C 629.461 103.047 614.443 105.683 606.485 114.817 C 598.559 123.935 589.633 151.35 597.734 164.709 C 602.086 171.856 614.634 179.639 623.87 182.022 Z " fill-rule="evenodd" id="Path" fill="rgb(89,158,18)"/><path d=" M 292.894 383.108 C 292.544 377.39 287.461 359.235 282.045 354.47 C 275.707 348.846 268.941 344.527 253.836 346.528 C 253.836 346.528 243.956 347.433 237.555 354.788 C 231.154 362.127 223.752 388.112 230.519 394.926 C 235.268 399.691 244.147 406.902 251.58 408.84 C 269.799 413.542 294.022 403.504 292.894 383.108 Z " fill-rule="evenodd" id="Path" fill="rgb(89,158,18)"/><path d=" M 445.873 97.322 C 452.879 103.946 470.224 106.154 481.151 104.867 C 507.82 101.611 534.839 75.578 522.656 49.099 C 519.209 41.649 502.961 20.159 493.271 16.617 C 481.914 12.47 438.949 27.211 434.294 40.268 C 429.624 53.356 430.752 61.251 433.246 72.671 C 435.041 80.836 440.092 91.795 445.873 97.322 Z " fill-rule="evenodd" id="Path" fill="rgb(89,158,18)"/></g><g id="Group"><path d=" M 423.833 433.333 L 519.833 423.333 L 531.833 508.333 L 441.833 518.333 L 423.833 433.333 Z " id="Path" fill="rgb(255,255,255)" vector-effect="non-scaling-stroke" stroke-width="1" stroke="rgb(0,0,0)" stroke-linejoin="miter" stroke-linecap="square" stroke-miterlimit="3"/><clipPath id="_clipPath_MM0zhlQJkMw3tLmewYEAFUfo4lBrpw0t"><path d=" M 0 0 L 882 0 L 882 882 L 0 882 L 0 0 L 0 0 Z " id="Path" fill="rgb(255,255,255)"/></clipPath><g clip-path="url(#_clipPath_MM0zhlQJkMw3tLmewYEAFUfo4lBrpw0t)"><g id="Group"><path d=" M 761.523 432.331 C 752.294 416.463 739.238 432.315 732.296 439.463 C 733.836 433.824 734.664 416.559 729.214 414.351 C 719.653 410.268 717.477 421.403 712.394 431.87 C 712.775 423.769 711.393 412.254 704.928 411.284 C 686.344 408.536 695.748 437.7 694.509 450.232 C 687.091 446.516 680.246 435.873 675.321 437.43 C 648.414 453.075 692.316 462.256 685.995 481.206 C 701.942 485.605 717.874 490.005 733.822 494.373 C 737.395 463.718 764.382 438.923 761.523 432.331 Z " fill-rule="evenodd" id="Path" fill="rgb(89,158,18)"/><path d=" M 487.392 669.476 C 490.855 656.801 494.35 644.141 497.828 631.497 C 508.28 640.186 516.348 650.225 526.562 659.104 C 514.379 664.076 501.323 667.554 487.392 669.476 Z  M 465.854 665.06 C 453.21 661.582 440.567 658.12 427.875 654.624 C 431.481 641.473 435.102 628.384 438.708 615.217 C 451.415 618.727 464.043 622.19 476.687 625.668 C 473.097 638.82 469.475 651.94 465.854 665.06 Z  M 449.509 488.035 C 467.68 484.461 487.567 484 505.977 480.824 C 506.866 500.805 465.234 509.161 449.509 488.035 Z  M 444.284 468.418 C 431.211 464.717 430.686 444.084 445.65 441.542 C 470.778 437.254 463.742 473.914 444.284 468.418 Z  M 516.809 441.448 C 525.021 462.017 494.556 468.784 488.25 451.756 C 488.441 432.759 507.295 430.837 516.809 441.448 Z  M 407.163 647.414 C 397.426 638.693 389.436 628.989 379.843 620.205 C 390.342 615.01 403.446 614.407 414.406 610.054 C 418.98 618.553 408.497 635.548 407.163 647.414 Z  M 723.878 502.966 C 712.188 499.725 700.466 496.5 688.712 493.277 C 677.751 523.138 676.052 552.999 665.871 576.286 C 648.541 616.107 604.392 615.55 559.965 609.212 C 562.015 601.746 564.095 594.219 566.176 586.69 C 538.935 579.208 511.742 571.727 484.517 564.262 C 487.884 552.046 491.237 539.864 494.588 527.633 C 510.344 526.109 525.371 523.376 541.445 522.391 C 537.776 469.896 529.341 420.037 524.925 367.969 C 513.077 368.08 501.592 368.763 491.855 372.528 C 494.492 384.488 494.905 397.735 496.668 410.172 C 479.45 411.919 462.629 414.366 445.173 415.668 C 445.491 402.072 441.472 390.906 442.203 377.007 C 430.783 377.15 421.252 380.534 409.561 380.152 C 414.406 431.996 421.681 482.475 426.08 534.527 C 442.568 534.988 456.339 530.652 472.557 530.667 C 469.984 540.071 467.411 549.426 464.821 558.83 C 437.167 551.221 409.498 543.613 381.781 536.004 C 379.604 543.93 377.413 551.935 375.22 559.91 C 275.947 535.94 220.051 585.038 203.007 701.737 C 214.286 704.85 225.547 707.931 236.809 711.044 C 246.99 682.088 249.642 653.195 258.855 630.83 C 276.455 588.135 319.246 586.197 365.928 593.663 C 356.779 627.002 347.614 660.28 338.449 693.587 C 365.42 702.006 397.124 707.708 421.077 717.827 C 414.756 730.407 439.852 736.03 441.17 721.861 C 468.379 729.311 495.588 736.824 522.797 744.304 C 532.868 711.235 540.253 673.448 552.055 643.347 C 619.618 655.705 679.945 644.396 702.594 580.368 C 710.647 557.59 714.92 530.858 723.878 502.966 Z " fill-rule="evenodd" id="Compound Path" fill="rgb(89,158,18)"/><path d=" M 240.97 723.402 C 224.53 718.875 208.123 714.333 191.715 709.853 C 195.59 735.013 152.339 771.292 172.733 778.804 C 182.533 782.379 187.108 765.701 194.399 760.491 C 184.392 787.223 202.182 801.837 214.19 768.56 C 214.254 776.882 215.667 792.274 223.403 792.735 C 240.573 793.799 229.772 766.622 232.441 754.36 C 239.906 757.616 240.827 764.589 250.214 766.781 C 255.377 764.223 258.347 764.144 259.968 758.903 C 264.224 744.924 234.251 740.35 240.97 723.402 Z " fill-rule="evenodd" id="Path" fill="rgb(89,158,18)"/></g></g><path d=" M 403.448 796.163 C 394.33 791.795 389.073 764.633 411.945 765.173 C 439.266 765.872 428.464 808.092 403.448 796.163 Z  M 432.532 744.446 C 432.241 741.128 435.176 733.637 433.738 731.341 C 431.062 727.068 423.76 727.928 420.821 727.446 C 418.868 727.126 416.82 740.158 414.631 739.952 C 411.848 739.69 408.836 739.471 405.496 739.172 C 397.459 728.18 399.667 725.639 387.977 731.341 C 374.618 737.821 384.943 739.108 384.323 750.02 C 382.417 750.115 380.972 751.02 380.352 753.45 C 375.714 755.23 370.981 749.131 365.247 747.812 C 364.024 756.088 359.688 758.819 358.433 767.127 C 361.942 769.477 368.201 770.288 370.314 773.385 C 369.567 775.847 369.44 777.88 370.171 779.404 C 368.026 785.377 360.942 782.629 356.606 784.773 C 355.986 792.255 359.958 797.084 360.434 804.009 C 366.803 805.502 369.361 800.244 376.047 802.23 C 382.036 809.441 376.937 812.666 372.395 820.893 C 377.747 824.578 382.258 828.772 389.168 831.552 C 391.423 827.216 392.742 821.132 397.888 821.847 C 410.595 821.735 402.161 833.664 408.848 837 C 414.217 835.92 420.523 836.65 425.859 835.618 C 425.971 826.135 423.477 819.385 433.738 818.098 C 438.741 820.401 439.17 825.262 444.857 827.216 C 449.209 822.37 453.562 817.511 457.929 812.649 C 451.543 808.807 445.524 803.707 451.956 795.876 C 455.578 794.606 460.518 795.638 465.379 796.544 C 468.253 788.554 466.522 783.218 468 776.085 C 463.711 774.926 455.451 777.515 453.529 773.592 C 448.573 764.363 459.422 763.013 462.789 756.469 C 452.37 740.712 453.036 741.888 437.82 748.082 C 436.339 746.91 432.823 747.764 432.532 744.446 Z " fill-rule="evenodd" id="gear" fill="rgb(89,158,18)"/></g></g></svg>