<svg xmlns="http://www.w3.org/2000/svg" xmlns:xlink="http://www.w3.org/1999/xlink" style="isolation:isolate" viewBox="0 0 200 161" width="200pt" height="161pt"><defs><clipPath id="_clipPath_2w9IgTiYzDWcEKpW0M2z2oNEDfQyalij"><rect width="200" height="161"/></clipPath></defs><g clip-path="url(#_clipPath_2w9IgTiYzDWcEKpW0M2z2oNEDfQyalij)"><path d=" M 31.803 160.77 C 23.375 159.61 15.897 155.183 15.897 147.91 C 15.897 143.694 19.057 140.321 22.954 140.321 C 27.061 140.321 30.116 143.378 30.116 147.172 C 30.116 148.332 29.8 149.597 29.273 150.756 C 28.746 151.916 28.536 152.759 28.536 153.286 C 28.536 155.289 29.484 159.189 31.17 159.927 C 31.276 159.927 31.381 159.927 31.487 160.032 C 31.592 160.137 31.698 160.137 31.803 160.137 L 31.803 160.77 L 31.803 160.77 Z  M 31.67 161.76 C 29.54 161.48 27.45 160.97 25.43 160.24 C 23.53 159.56 21.74 158.62 20.11 157.44 C 18.58 156.35 17.29 154.95 16.33 153.33 C 15.39 151.68 14.9 149.81 14.9 147.91 C 14.88 145.67 15.71 143.51 17.23 141.86 C 18.7 140.26 20.77 139.34 22.94 139.32 C 25.11 139.3 27.2 140.11 28.77 141.6 C 30.27 143.07 31.12 145.08 31.12 147.18 C 31.09 148.57 30.77 149.93 30.18 151.18 C 29.97 151.62 29.8 152.08 29.66 152.55 C 29.59 152.79 29.54 153.04 29.54 153.3 C 29.54 153.83 29.6 154.36 29.69 154.89 C 29.8 155.53 29.96 156.16 30.17 156.77 C 30.35 157.32 30.59 157.84 30.89 158.33 C 31 158.5 31.13 158.66 31.28 158.8 C 31.33 158.86 31.39 158.91 31.46 158.95 C 31.71 159 31.95 159.11 32.14 159.27 L 31.12 160.46 C 31.32 160.63 31.58 160.72 31.84 160.7 L 32.8 160.14 L 32.8 160.77 C 32.8 161.06 32.68 161.33 32.46 161.52 C 32.25 161.71 31.96 161.8 31.67 161.76 Z " fill-rule="evenodd" id="J" fill="rgb(0,180,255)"/><path d=" M 87.253 35.756 L 87.253 35.967 L 84.934 35.967 C 80.295 35.967 77.238 36.388 75.868 37.126 C 74.497 37.864 73.549 39.34 73.022 41.343 C 72.494 43.451 72.284 48.721 72.284 57.259 L 72.284 118.607 C 72.284 134.524 71.968 140.954 66.175 148.859 C 60.383 156.87 52.159 159.716 45.092 160.665 L 45.092 160.138 C 47.307 159.294 49.205 158.03 50.893 156.343 C 54.268 153.392 56.588 146.645 57.432 141.164 C 58.17 136.632 58.592 129.042 58.592 118.607 L 58.592 57.259 C 58.592 49.143 58.381 43.978 57.959 41.764 C 57.432 39.551 56.483 38.075 55.112 37.232 C 53.741 36.388 50.577 35.967 45.83 35.967 L 43.616 35.967 L 43.616 35.756 L 87.253 35.756 L 87.253 35.756 L 87.253 35.756 Z  M 88.25 34.76 L 88.25 36.97 L 84.93 36.97 C 84.93 36.97 84.93 36.97 84.92 36.97 C 83.04 36.94 81.16 37.04 79.29 37.26 C 78.67 37.34 78.05 37.45 77.45 37.61 C 77.06 37.7 76.69 37.83 76.34 38.01 C 75.78 38.32 75.31 38.77 74.97 39.3 C 74.52 40 74.19 40.77 74 41.57 C 73.84 42.24 73.74 42.92 73.68 43.61 C 73.57 44.71 73.5 45.82 73.45 46.93 C 73.32 50.37 73.26 53.81 73.28 57.25 C 73.28 57.26 73.28 57.26 73.28 57.26 L 73.28 118.6 C 73.31 122.06 73.26 125.52 73.14 128.97 C 73.09 130.38 73 131.78 72.87 133.18 C 72.76 134.43 72.6 135.67 72.39 136.9 C 72.01 139.15 71.38 141.34 70.49 143.43 C 69.55 145.56 68.37 147.58 66.98 149.45 C 65.57 151.41 63.92 153.18 62.07 154.72 C 60.38 156.12 58.53 157.33 56.56 158.31 C 54.72 159.22 52.8 159.96 50.82 160.51 C 48.99 161.02 47.11 161.41 45.22 161.66 C 44.94 161.69 44.65 161.61 44.43 161.42 C 44.22 161.23 44.09 160.95 44.09 160.67 L 44.09 160.14 C 44.09 159.73 44.35 159.35 44.73 159.21 C 46.79 158.41 48.65 157.19 50.2 155.62 C 51.05 154.85 51.78 153.96 52.36 152.98 C 53.07 151.82 53.68 150.6 54.18 149.33 C 55.25 146.66 56.01 143.86 56.44 141.01 C 56.65 139.71 56.81 138.41 56.93 137.1 C 57.08 135.42 57.21 133.74 57.29 132.05 C 57.51 127.57 57.61 123.09 57.59 118.61 C 57.59 118.61 57.59 118.61 57.59 118.61 L 57.59 57.26 C 57.59 57.26 57.59 57.26 57.59 57.25 C 57.61 53.95 57.55 50.64 57.43 47.33 C 57.39 46.24 57.33 45.15 57.24 44.06 C 57.19 43.35 57.1 42.65 56.98 41.96 C 56.79 41.09 56.46 40.26 56 39.51 C 55.64 38.93 55.16 38.45 54.6 38.09 C 54.25 37.89 53.88 37.74 53.5 37.65 C 52.88 37.48 52.25 37.35 51.61 37.27 C 50.76 37.16 49.9 37.09 49.04 37.04 C 47.97 36.99 46.9 36.96 45.83 36.97 C 45.83 36.97 45.83 36.97 45.83 36.97 L 42.62 36.97 L 42.62 34.76 L 88.25 34.76 Z " fill-rule="evenodd" id="J2" fill="rgb(0,180,255)"/><path d=" M 95.159 126.403 L 92.102 126.403 L 87.253 109.958 L 116.557 34.49 L 120.457 34.49 L 124.99 48.287 L 95.159 126.403 L 95.159 126.403 Z  M 95.85 127.4 L 91.35 127.4 L 86.2 109.91 L 115.87 33.49 L 121.18 33.49 L 126.05 48.31 L 95.85 127.4 Z " fill-rule="evenodd" id="W" fill="rgb(0,136,197)"/><path d=" M 138.134 126.403 L 134.867 126.403 L 129.596 110.063 L 147.832 53.347 C 149.835 47.128 150.678 42.81 150.678 40.598 C 150.678 38.913 150.046 37.544 148.886 36.597 C 147.727 35.649 144.986 35.122 140.77 34.806 L 140.77 34.49 L 175.977 34.49 L 175.977 34.806 C 169.23 35.122 167.017 37.123 165.225 41.441 C 165.119 41.546 163.749 46.285 160.798 55.666 L 138.134 126.403 L 138.134 126.403 Z  M 138.86 127.4 L 134.14 127.4 L 128.55 110.06 L 146.88 53.04 C 146.88 53.04 146.88 53.04 146.88 53.03 C 147.73 50.48 148.44 47.88 149.03 45.25 C 149.23 44.34 149.4 43.43 149.53 42.51 C 149.62 41.87 149.67 41.23 149.68 40.59 C 149.69 39.95 149.56 39.31 149.3 38.73 C 149.06 38.21 148.71 37.74 148.26 37.38 C 148 37.18 147.7 37.01 147.38 36.9 C 146.86 36.71 146.32 36.55 145.77 36.44 C 145.03 36.29 144.29 36.17 143.53 36.08 C 142.59 35.96 141.65 35.87 140.7 35.8 C 140.45 35.79 140.21 35.67 140.04 35.49 C 139.87 35.3 139.77 35.06 139.77 34.81 L 139.77 33.49 L 176.98 33.49 L 176.98 34.81 C 176.98 35.07 176.88 35.32 176.69 35.5 C 176.51 35.69 176.27 35.8 176.01 35.81 C 174.63 35.85 173.27 36.03 171.93 36.34 C 171 36.56 170.1 36.94 169.29 37.46 C 168.61 37.92 168.01 38.51 167.54 39.19 C 166.98 40.01 166.52 40.89 166.16 41.81 L 164.58 40.95 C 164.49 41.06 164.43 41.19 164.4 41.32 L 166.13 41.87 C 166.11 41.91 166.09 41.96 166.08 42 C 166.01 42.21 165.94 42.42 165.88 42.63 C 165.61 43.47 165.36 44.31 165.1 45.15 C 164 48.76 162.88 52.37 161.75 55.97 C 161.75 55.97 161.75 55.97 161.75 55.97 L 138.86 127.4 Z " fill-rule="evenodd" id="W2" fill="rgb(0,136,197)"/><path d=" M 87.253 133.515 L 87.253 150.324 L 92.452 150.324 C 97.852 150.324 102.509 148.059 102.509 141.92 C 102.509 135.78 97.852 133.515 92.452 133.515 L 87.253 133.515 L 87.253 133.515 L 87.253 133.515 Z  M 89.099 135.139 L 92.575 135.139 C 96.027 135.139 100.54 136.224 100.54 141.92 C 100.54 147.615 96.027 148.7 92.575 148.7 L 89.099 148.7 L 89.099 135.139 L 89.099 135.139 L 89.099 135.139 Z " id="D" fill="rgb(0,135,196)"/><path d=" M 109.882 133.515 L 111.728 133.515 L 111.728 150.323 L 109.882 150.323 L 109.882 133.515 Z " id="I" fill="rgb(0,135,196)"/><path d=" M 134.012 134.721 C 132.388 134.032 130.588 133.294 128.171 133.294 C 122.722 133.294 119.126 137.187 119.126 141.946 C 119.126 146.456 122.5 150.546 128.196 150.546 C 130.39 150.546 132.338 150.029 134.356 149.144 L 134.356 142.365 L 129.108 142.365 L 129.108 143.989 L 132.511 143.989 L 132.511 147.985 C 131.919 148.207 130.168 148.922 128.023 148.922 C 124.695 148.922 121.095 146.505 121.095 141.921 C 121.095 138.05 124.004 134.967 128.048 134.967 C 128.689 134.967 131.303 135.016 134.012 136.693 L 134.012 134.721 L 134.012 134.721 L 134.012 134.721 Z " id="G" fill="rgb(0,135,196)"/><path d=" M 142.074 133.515 L 143.92 133.515 L 143.92 150.323 L 142.074 150.323 L 142.074 133.515 Z " id="I2" fill="rgb(0,135,196)"/><path d=" M 164.454 133.515 L 150.48 133.515 L 150.48 135.139 L 156.544 135.139 L 156.544 150.324 L 158.39 150.324 L 158.39 135.139 L 164.454 135.139 L 164.454 133.515 L 164.454 133.515 L 164.454 133.515 Z " id="T" fill="rgb(0,135,196)"/><path d=" M 176.337 133.417 L 175.104 133.417 L 167.637 150.324 L 169.559 150.324 L 171.95 144.926 L 179.639 144.926 L 182.079 150.324 L 184.001 150.324 L 176.337 133.417 L 176.337 133.417 Z  M 178.875 143.302 L 172.665 143.302 L 175.721 136.326 L 178.875 143.302 L 178.875 143.302 Z " id="A" fill="rgb(0,135,196)"/><path d=" M 192.063 133.515 L 190.217 133.515 L 190.217 150.324 L 200 150.324 L 200 148.7 L 192.063 148.7 L 192.063 133.515 L 192.063 133.515 Z " id="L" fill="rgb(0,135,196)"/><path d=" M 88.31 0 C 95.837 0.014 103.361 0.988 110.655 2.881 C 122.189 5.875 133.136 11.311 142.51 18.577 C 146.269 21.491 149.802 24.728 153.048 28.22 C 149.074 24.454 144.671 20.984 140.165 18.042 C 131.658 12.489 122.157 8.41 112.274 6.106 C 98.674 2.934 84.411 2.947 70.71 6.396 C 63.895 8.112 57.338 10.588 51.083 13.89 C 46.068 16.538 41.353 19.6 37.074 22.99 C 28.505 29.778 21.153 38.001 15.664 47.098 C 9.563 57.21 5.53 68.424 3.824 79.808 C 2.276 90.145 2.551 100.892 4.721 111.222 C 6.424 119.33 9.306 127.294 13.245 134.696 C 8.922 127.727 5.557 120.117 3.313 112.21 C 0.382 101.883 -0.555 91.149 0.307 80.586 C 1.306 68.354 5.007 56.277 10.925 45.454 C 13.779 40.237 17.157 35.382 21.015 30.825 C 24.714 26.455 28.823 22.52 33.227 18.994 C 37.861 15.283 43.132 11.972 48.406 9.32 C 54.796 6.106 61.517 3.756 68.426 2.175 C 74.903 0.693 81.436 0.019 88.018 0 C 88.115 0 88.213 0 88.31 0 L 88.31 0 L 88.31 0 Z  M 124.45 8.84 C 120.56 7.32 116.57 6.08 112.5 5.13 C 105.78 3.56 98.91 2.77 92.01 2.77 C 84.75 2.76 77.51 3.66 70.47 5.43 C 63.57 7.15 56.91 9.7 50.62 13 C 45.62 15.63 40.88 18.71 36.45 22.21 C 32.14 25.62 28.13 29.4 24.47 33.51 C 20.85 37.56 17.62 41.94 14.81 46.58 C 8.68 56.71 4.61 67.95 2.84 79.66 C 2.17 84.08 1.84 88.55 1.84 93.02 C 1.84 97.13 2.12 101.23 2.68 105.29 C 1.55 99.63 0.99 93.87 1 88.1 C 1 85.62 1.1 83.14 1.3 80.67 C 1.81 74.6 2.95 68.61 4.73 62.78 C 6.5 56.94 8.87 51.29 11.8 45.93 C 14.63 40.79 17.97 35.95 21.78 31.47 C 25.41 27.19 29.46 23.28 33.85 19.78 C 36.17 17.92 38.6 16.19 41.11 14.6 C 43.62 13.01 46.2 11.55 48.85 10.21 C 55.14 7.07 61.79 4.7 68.65 3.15 C 75 1.72 81.5 1 88.02 1 C 88.02 1 88.02 1 88.02 1 L 88.31 1 C 95.76 1.02 103.19 1.97 110.4 3.85 C 115.22 5.1 119.92 6.77 124.45 8.84 Z " fill-rule="evenodd" id="arch" fill="rgb(0,179,255)"/></g></svg>